<svg version="1.1" id="Layer_1" xmlns="http://www.w3.org/2000/svg" xmlns:xlink="http://www.w3.org/1999/xlink" x="0px" y="0px"
	 width="100%" viewBox="0 0 924 598" enable-background="new 0 0 924 598" xml:space="preserve">
<path fill="none" opacity="1.000000" stroke="#000000" stroke-linecap="round" stroke-linejoin="round" stroke-width="11.000000"
	d="
M866.500000,235.000000 
	C864.824158,232.516083 862.645691,231.006165 859.500916,230.949509 
	C858.328613,230.928360 857.128296,230.429901 856.006348,229.984070 
	C849.493408,227.396225 843.000000,226.571609 836.500000,230.000000 
"/>
<path fill="none" opacity="1.000000" stroke="#000000" stroke-linecap="round" stroke-linejoin="round" stroke-width="6.000000"
	d="
M799.000000,241.000000 
	C793.735779,248.782654 789.245728,257.204651 781.015808,262.524475 
	C779.993408,263.185364 779.387695,264.257141 778.972656,265.490784 
	C775.800720,274.918243 768.397949,280.972809 761.545471,287.547394 
	C754.391785,294.410889 746.886353,300.926147 741.380249,309.422363 
	C738.485718,313.888702 739.666626,319.049072 737.540161,323.519104 
	C736.046692,326.658386 736.002441,330.247620 736.661743,333.466888 
	C737.241516,336.298676 736.401611,337.984802 734.487793,339.484436 
	C718.194031,352.252136 706.913452,369.385986 694.546021,385.535217 
	C678.392578,406.627960 663.944641,428.909698 650.049805,451.530579 
	C640.043579,467.820953 631.012329,484.591736 623.780884,502.411072 
	C618.956421,514.299316 614.431213,526.348877 609.000000,538.000000 
"/>
<path fill="none" opacity="1.000000" stroke="#000000" stroke-linecap="round" stroke-linejoin="round" stroke-width="15.000000"
	d="
M208.000000,6.000000 
	C189.383255,33.390373 171.091873,61.021694 150.396896,86.917595 
	C146.677994,91.571091 146.348724,96.879089 145.709946,102.026054 
	C145.106567,106.887779 143.013397,110.634102 140.529419,114.518806 
	C132.782547,126.634201 124.883400,138.666779 117.598343,151.057816 
	C112.638168,159.494522 107.990280,168.205063 105.960556,177.991821 
	C105.568512,179.882095 105.201241,182.285507 103.912529,183.398743 
	C96.030685,190.207428 96.479584,200.419266 92.996574,208.998611 
	C92.856819,209.342865 92.641945,209.656754 92.503677,210.001480 
	C90.046722,216.127060 91.154846,220.794556 95.176613,226.719513 
	C105.116364,241.362930 116.476639,254.850830 127.048035,268.964020 
	C127.815224,269.988251 128.135147,271.233795 129.457275,272.067749 
	C143.699234,281.051331 151.755447,295.530853 161.439133,308.545288 
	C162.554733,310.044586 163.181290,312.121216 163.427902,314.009430 
	C163.949036,317.999451 165.454865,321.447906 168.000000,324.500000 
"/>
<path fill="none" opacity="1.000000" stroke="#000000" stroke-linecap="round" stroke-linejoin="round" stroke-width="5.000000"
	d="
M184.500000,352.500000 
	C194.385483,369.059021 208.649643,381.982025 220.941757,396.549133 
	C241.322479,420.701874 261.199005,445.279724 281.549866,469.458038 
	C293.946106,484.185638 306.876892,498.462311 319.477814,513.019226 
	C324.280884,518.567810 328.757385,524.398376 333.531738,529.972839 
	C335.954407,532.801514 337.216278,536.131775 338.500000,539.500000 
"/>
<path fill="none" opacity="1.000000" stroke="#000000" stroke-linecap="round" stroke-linejoin="round" stroke-width="4.000000"
	d="
M646.000000,303.500000 
	C647.453491,310.220734 646.240417,317.129761 642.788513,322.360443 
	C628.346985,344.243683 616.988342,367.830841 604.147156,390.583038 
	C594.183899,408.236023 583.938477,425.902405 578.055786,445.516724 
	C574.584106,457.091919 571.666626,468.833313 568.499939,480.500000 
"/>
<path fill="none" opacity="1.000000" stroke="#000000" stroke-linecap="round" stroke-linejoin="round" stroke-width="5.000000"
	d="
M140.500000,51.500000 
	C137.492767,55.106892 135.340897,59.256748 133.547241,63.519878 
	C126.119270,81.174561 114.057503,95.311981 100.578003,108.579254 
	C91.400467,117.612297 82.084900,126.223671 71.170166,133.263824 
	C66.960037,135.979416 63.643055,141.262451 61.735561,146.093018 
	C58.738628,153.682495 52.709362,159.206039 49.503925,166.501724 
	C45.737419,175.074432 39.441956,182.230164 35.930435,190.972061 
	C34.612263,194.253601 33.786591,197.587662 32.835457,200.953506 
	C30.198576,210.284897 32.114105,218.526123 36.932339,226.540680 
	C37.753323,227.906296 38.653080,228.087204 39.958199,228.605301 
	C49.523991,232.402725 58.672867,237.324142 69.000000,239.000000 
"/>
<path fill="none" opacity="1.000000" stroke="#000000" stroke-linecap="round" stroke-linejoin="round" stroke-width="5.000000"
	d="
M226.000000,121.500000 
	C222.300568,121.527107 218.658325,121.300949 214.987488,120.562172 
	C206.405563,118.834999 198.367111,120.155220 191.520660,126.024101 
	C189.163803,128.044449 186.559540,128.899536 183.539917,129.658752 
	C176.785843,131.356888 171.198685,135.609756 165.482971,139.474823 
	C162.075836,141.778809 158.653137,144.163116 154.946335,145.884415 
	C152.461365,147.038345 152.161621,149.176300 151.581421,151.025543 
	C147.378418,164.421219 141.634186,177.217514 135.825607,189.920258 
	C131.491028,199.399536 132.063293,208.253067 135.474014,217.509583 
	C136.362488,219.920822 137.516464,221.723511 139.932968,223.116318 
	C143.098602,224.940903 145.486359,227.794891 147.572250,230.952271 
	C150.450714,235.309326 154.452515,239.002533 156.887466,243.560120 
	C165.216019,259.148865 179.502640,269.831512 189.482941,284.011993 
	C191.929626,287.488342 195.472977,289.362091 198.887222,291.667053 
	C203.029068,294.463196 206.470230,298.370605 209.947372,302.049744 
	C211.954849,304.173798 214.149338,305.197083 216.994354,305.546051 
	C223.371964,306.328400 228.503632,310.134216 233.982346,313.033356 
	C238.071899,315.197479 242.231277,317.350464 245.949127,320.069550 
	C252.548294,324.895966 259.593048,325.596344 266.964508,322.902832 
	C270.185516,321.725861 271.502472,322.362183 272.543182,325.485626 
	C277.059113,339.039429 285.905762,349.807617 294.933380,360.555969 
	C305.606293,373.263245 314.347870,387.394806 322.915985,401.550873 
	C334.501648,420.692444 346.993774,439.200531 360.645691,456.887543 
	C364.215973,461.513092 368.447632,465.457794 369.500000,471.500000 
"/>
<path fill="none" opacity="1.000000" stroke="#000000" stroke-linecap="round" stroke-linejoin="round" stroke-width="4.000000"
	d="
M759.500000,336.500000 
	C761.903809,344.904541 762.779663,352.968292 754.501648,359.002228 
	C753.655945,359.618652 753.725525,360.605133 753.471924,361.491974 
	C752.403564,365.228516 750.508301,368.514435 748.014038,371.511688 
	C735.394958,386.675598 725.963989,403.700378 717.293945,421.399048 
	C707.289368,441.821838 696.619995,461.979492 684.046204,481.030487 
	C681.467102,484.938049 679.062012,489.018921 677.500000,493.500000 
"/>
<path fill="none" opacity="1.000000" stroke="#000000" stroke-linecap="round" stroke-linejoin="round" stroke-width="22.000000"
	d="
M704.000000,54.000000 
	C712.243652,62.270706 720.761536,70.260330 728.061401,79.451218 
	C732.115051,84.555031 735.889038,89.847023 738.885742,95.559937 
	C741.555847,100.650330 744.935852,105.216751 748.080933,109.946175 
	C750.205750,113.141266 752.789429,115.871712 756.954468,117.148438 
	C762.033020,118.705154 764.059692,123.643806 766.545349,127.973961 
	C771.477356,136.565903 773.735657,146.021622 776.000000,155.500000 
"/>
<path fill="none" opacity="1.000000" stroke="#000000" stroke-linecap="round" stroke-linejoin="round" stroke-width="22.000000"
	d="
M769.500000,195.000000 
	C768.471741,213.479248 759.950195,228.773285 748.934692,242.949280 
	C747.810791,244.395599 747.174011,245.931549 746.524292,247.509995 
	C743.810852,254.101807 739.772461,259.739563 734.492859,264.492065 
	C731.079468,267.564728 726.969543,269.191132 722.500000,270.000000 
"/>
<path fill="none" opacity="1.000000" stroke="#000000" stroke-linecap="round" stroke-linejoin="round" stroke-width="4.000000"
	d="
M697.000000,292.000000 
	C693.003662,297.152344 688.833008,302.168671 683.443176,305.918274 
	C682.358765,306.672699 681.632385,307.521851 681.022827,308.514038 
	C675.816345,316.989532 670.980469,325.715088 665.364990,333.907471 
	C662.638123,337.885712 662.903931,341.904663 663.091858,345.995789 
	C663.363953,351.920074 661.490173,356.788483 658.065613,361.547211 
	C649.298767,373.729858 643.956604,387.659027 638.503174,401.501251 
	C633.219604,414.912201 627.510681,428.134003 620.992371,440.996124 
	C619.711853,443.522919 618.333313,446.000000 617.000000,448.500000 
"/>
<path fill="none" opacity="1.000000" stroke="#000000" stroke-linecap="round" stroke-linejoin="round" stroke-width="15.000000"
	d="
M632.000000,258.000000 
	C628.840637,256.275330 628.633911,253.656769 629.470276,250.492157 
	C631.570496,242.545074 635.292114,235.137756 637.666077,227.397583 
	C640.081421,219.522766 644.531372,212.725311 647.046143,205.015045 
	C649.838440,196.453781 656.989380,193.771378 665.424805,192.341568 
	C668.993408,200.192307 666.461548,207.753494 663.896851,214.963303 
	C658.021423,231.479935 648.995361,246.149719 637.627441,259.607666 
	C628.234070,270.728027 617.923340,280.915741 608.070190,291.564911 
	C603.329773,296.688263 598.821411,302.182373 595.153137,308.095001 
	C591.900208,313.338226 588.225037,316.179871 582.000000,315.000000 
"/>
<path fill="none" opacity="1.000000" stroke="#000000" stroke-linecap="round" stroke-linejoin="round" stroke-width="20.000000"
	d="
M192.000000,204.000000 
	C199.946014,213.201874 207.173492,222.927536 214.081253,232.943970 
	C222.032394,244.473358 232.066391,254.425140 239.992935,266.004822 
	C248.620590,278.608765 255.239426,292.394379 263.131775,305.420166 
	C266.329895,310.698364 268.627380,316.092407 270.000000,322.000000 
"/>
<path fill="none" opacity="1.000000" stroke="#000000" stroke-linecap="round" stroke-linejoin="round" stroke-width="23.000000"
	d="
M257.500000,156.000000 
	C252.166672,153.869446 246.972733,151.504608 241.403275,155.876801 
	C239.987396,156.988312 239.058258,157.871277 239.021347,159.500488 
	C238.768204,170.675125 236.591492,181.583832 234.468384,192.493851 
	C233.788406,195.987976 233.691238,199.195572 235.425415,202.538681 
	C237.413788,206.371811 238.727005,210.548859 240.535202,214.483826 
	C241.869003,217.386429 244.308640,219.152817 246.851349,221.185898 
	C255.588943,228.172333 263.548492,236.083755 267.442627,247.020432 
	C268.015015,248.627991 268.764496,249.971802 270.014191,250.982452 
	C278.524414,257.864899 284.831909,266.636230 290.954956,275.531006 
	C293.523285,279.261932 296.203033,282.708160 300.504272,284.489655 
	C302.957428,285.505676 304.482208,287.435181 306.034271,289.473907 
	C308.557404,292.788300 311.765472,295.265961 316.002350,295.986145 
	C323.296265,297.225922 329.725098,301.221466 337.000000,302.500000 
"/>
<path fill="none" opacity="1.000000" stroke="#000000" stroke-linecap="round" stroke-linejoin="round" stroke-width="4.000000"
	d="
M357.500000,318.000000 
	C360.228058,326.430206 363.570435,334.614960 368.539368,341.973419 
	C375.824890,352.762482 380.889832,364.644684 385.960144,376.517029 
	C391.187317,388.756531 396.825134,400.803802 404.137390,411.909546 
	C406.983002,416.231384 409.194183,420.585510 410.500000,425.500000 
"/>
<path fill="none" opacity="1.000000" stroke="#000000" stroke-linecap="round" stroke-linejoin="round" stroke-width="4.000000"
	d="
M306.500000,149.500000 
	C312.281006,152.178604 316.934418,156.815659 323.000000,159.000000 
"/>
<path fill="none" opacity="1.000000" stroke="#000000" stroke-linecap="round" stroke-linejoin="round" stroke-width="5.000000"
	d="
M329.500000,190.000000 
	C327.494019,192.201950 328.491089,194.848328 329.120483,196.964157 
	C330.803009,202.620132 333.421539,207.943176 336.551605,212.967850 
	C336.879913,213.494919 337.006683,214.184494 337.965424,214.583130 
	C346.076080,217.955521 349.530792,225.975647 354.980377,232.017685 
	C355.461456,232.551086 355.876099,233.305832 355.967865,234.004227 
	C356.967499,241.612411 362.157593,246.796570 366.460297,252.529800 
	C368.200989,254.849167 369.741608,257.389343 370.948212,260.023712 
	C373.246063,265.040680 375.723969,269.839966 380.493195,273.010223 
	C380.878052,273.266052 381.307159,273.606598 381.479156,274.008911 
	C384.541901,281.173065 390.101196,285.785065 396.416962,290.120941 
	C407.145447,297.486298 413.462708,308.526398 419.001801,319.999146 
	C423.765594,329.866028 428.684540,339.646149 431.049042,350.489288 
	C432.624146,357.712280 434.504150,364.880188 436.551117,371.985260 
	C438.208405,377.737793 440.120178,383.443970 443.500000,388.500000 
"/>
<path fill="none" opacity="1.000000" stroke="#000000" stroke-linecap="round" stroke-linejoin="round" stroke-width="13.000000"
	d="
M288.000000,200.000000 
	C297.319916,205.973572 303.522797,214.923340 309.928223,223.553268 
	C319.048340,235.840591 328.520386,247.918198 336.435425,261.038940 
	C342.989044,271.902863 348.662140,283.213165 347.993042,296.499664 
	C347.875427,298.835449 347.666687,301.166656 347.500031,303.500000 
"/>
<path fill="none" opacity="1.000000" stroke="#000000" stroke-linecap="round" stroke-linejoin="round" stroke-width="18.000000"
	d="
M682.000000,158.000000 
	C682.018738,149.380142 681.576355,140.837509 679.039246,132.488068 
	C677.032654,125.884689 670.272766,119.854851 663.504639,118.964729 
	C662.344299,118.812126 661.664185,119.438026 661.020752,120.022804 
	C650.876709,129.241608 640.635437,138.349014 629.962280,146.953186 
	C628.963501,147.758362 629.120728,148.547058 628.979126,149.496887 
	C627.176636,161.585892 624.612610,173.418869 618.079529,184.048889 
	C617.170288,185.528244 617.226257,187.654633 617.018616,189.502090 
	C616.140930,197.308167 614.581238,204.920639 611.017029,212.008575 
	C610.883240,212.274628 610.933777,212.682602 611.009583,212.997696 
	C613.568420,223.637848 605.670349,230.545975 601.223633,238.342377 
	C597.693054,244.532501 594.724487,250.661362 592.984558,257.496063 
	C591.637451,262.787872 588.199829,267.099854 585.952576,271.978149 
	C584.895752,274.272217 583.239563,276.281769 582.015564,278.508575 
	C575.478149,290.402313 576.207703,302.424194 581.169128,314.491333 
	C563.377197,340.575043 551.324707,369.361969 543.565552,400.016602 
	C542.127563,405.698059 541.431763,411.582672 541.500000,417.500000 
"/>
<path fill="none" opacity="1.000000" stroke="#000000" stroke-linecap="round" stroke-linejoin="round" stroke-width="5.000000"
	d="
M754.000000,7.000000 
	C757.486755,11.179910 761.579651,14.754292 765.410156,18.589758 
	C777.652344,30.847860 789.743225,43.277920 801.422729,56.070538 
	C810.696106,66.227798 816.988159,78.476135 823.500061,90.499969 
	C825.666443,94.500130 827.833313,98.500000 830.000000,102.500000 
"/>
<path fill="none" opacity="1.000000" stroke="#000000" stroke-linecap="round" stroke-linejoin="round" stroke-width="10.000000"
	d="
M403.500000,257.000000 
	C397.920197,257.673035 395.299377,253.837128 392.470032,250.022232 
	C381.427399,235.133209 371.771545,219.176590 358.522461,205.977432 
	C355.078186,202.546158 352.316589,198.706329 350.373444,194.052841 
	C347.165619,186.370651 339.725555,184.899048 332.500000,183.500000 
"/>
<path fill="none" opacity="1.000000" stroke="#000000" stroke-linecap="round" stroke-linejoin="round" stroke-width="3.000000"
	d="
M589.000000,315.500000 
	C592.938477,325.269409 595.253601,335.115997 589.455811,344.973999 
	C587.403198,348.464050 586.324585,352.249756 584.944885,355.979614 
	C580.398560,368.270203 577.654419,381.095062 573.614563,393.537201 
	C572.400635,397.276123 570.472717,400.702209 569.500000,404.500000 
"/>
<path fill="none" opacity="1.000000" stroke="#000000" stroke-linecap="round" stroke-linejoin="round" stroke-width="16.000000"
	d="
M549.000000,193.500000 
	C548.170959,184.953659 545.934021,176.242157 546.112366,168.013275 
	C546.303955,159.172409 547.608276,149.502960 551.317688,141.140930 
	C553.156128,136.996582 557.844360,133.160858 562.151978,131.364395 
	C565.711670,129.879852 570.572693,132.301727 573.421875,135.568130 
	C578.954529,141.910767 586.799866,144.553116 593.543823,148.932510 
	C595.209717,150.014282 596.143860,150.942764 596.028137,153.001587 
	C595.467224,162.983429 592.188904,172.078506 586.927368,180.454361 
	C585.730347,182.359909 582.932129,182.080887 580.979858,182.358337 
	C574.020142,183.347443 569.977966,188.120316 566.031494,193.025330 
	C560.684998,199.670395 556.708862,207.558823 548.529480,211.560272 
	C547.681213,211.975266 546.693787,212.680542 546.465332,213.993973 
	C545.937073,217.030487 543.988220,219.330246 541.980591,221.481873 
	C533.425171,230.650757 530.242126,241.941833 529.013000,254.001328 
	C528.113403,262.827911 526.882385,271.654633 526.646423,280.503906 
	C526.466431,287.257568 526.350464,294.197052 529.917725,300.546234 
	C531.540344,303.434326 529.593262,307.502167 526.491211,308.981598 
	C525.042542,309.672516 523.500000,310.166656 522.000000,310.750000 
"/>
<path fill="none" opacity="1.000000" stroke="#000000" stroke-linecap="round" stroke-linejoin="round" stroke-width="4.000000"
	d="
M528.000000,309.000000 
	C531.343018,315.003967 529.526611,321.517517 528.744080,327.466339 
	C527.057312,340.290039 524.662170,352.965668 524.348694,365.996368 
	C524.095642,376.514343 522.500000,387.000000 521.500000,397.500000 
"/>
<path fill="none" opacity="1.000000" stroke="#000000" stroke-linecap="round" stroke-linejoin="round" stroke-width="18.000000"
	d="
M885.500000,237.500000 
	C875.915222,243.182755 868.545898,251.555603 860.040283,258.548981 
	C857.798157,260.392395 855.658936,262.915771 852.975708,263.349701 
	C844.590088,264.705719 839.618164,270.783356 834.015869,276.016998 
	C818.908691,290.130157 802.012756,301.913483 784.935486,313.404114 
	C777.168274,318.630402 770.127625,324.552399 764.087463,331.575195 
	C760.573181,335.661163 756.345337,336.518646 751.500000,336.503235 
	C746.833374,336.488373 742.166687,336.500000 737.500000,336.500000 
"/>
<path fill="none" opacity="1.000000" stroke="#000000" stroke-linecap="round" stroke-linejoin="round" stroke-width="14.000000"
	d="
M433.500000,136.500000 
	C425.783325,143.356461 415.739960,146.903046 408.400238,154.402359 
	C405.693542,157.167938 404.592407,159.825485 404.971771,163.502914 
	C405.622986,169.815659 405.928894,176.105209 405.697540,182.507141 
	C405.445068,189.492294 409.370728,195.676392 412.085419,201.963120 
	C413.686951,205.671890 415.767792,209.258377 419.478027,211.535782 
	C421.599487,212.837967 422.128235,215.123917 422.539215,217.493195 
	C423.410431,222.515533 424.427521,227.516129 425.534912,232.492233 
	C425.990479,234.539215 426.398987,236.810394 427.570435,238.449677 
	C435.217804,249.151352 437.419464,261.958649 441.386414,274.037323 
	C444.431549,283.309326 451.062897,288.173401 459.500000,291.500000 
"/>
<path fill="none" opacity="1.000000" stroke="#000000" stroke-linecap="round" stroke-linejoin="round" stroke-width="22.000000"
	d="
M697.500000,230.000000 
	C691.964050,238.054794 687.077454,246.591354 680.011658,253.511902 
	C679.423218,254.088287 678.585083,254.819702 678.562683,255.502029 
	C678.265747,264.554932 671.491943,269.884766 666.372131,275.891022 
	C659.695679,283.723572 653.250916,291.649719 648.035461,300.520844 
	C646.836731,302.559784 645.311279,303.623566 643.000427,303.492096 
	C633.708435,302.963470 627.885559,308.768463 622.592712,315.077759 
	C620.395142,317.697327 617.746399,320.134705 616.500000,323.500000 
"/>
<path fill="none" opacity="1.000000" stroke="#000000" stroke-linecap="round" stroke-linejoin="round" stroke-width="11.000000"
	d="
M872.500000,222.500000 
	C874.096436,210.653549 879.355957,200.009903 883.500000,189.000000 
"/>
<path fill="none" opacity="1.000000" stroke="#000000" stroke-linecap="round" stroke-linejoin="round" stroke-width="22.000000"
	d="
M875.750000,159.000000 
	C872.250488,147.318359 867.513672,136.278671 860.063110,126.452164 
	C856.133301,121.269142 854.046326,114.838791 849.517517,109.983673 
	C848.869934,109.289413 848.724426,108.108902 847.500000,108.000000 
"/>
<path fill="none" opacity="1.000000" stroke="#000000" stroke-linecap="round" stroke-linejoin="round" stroke-width="3.000000"
	d="
M181.000000,342.500000 
	C192.960342,337.673737 203.536682,341.554993 213.429718,348.106140 
	C216.567886,350.184204 219.419403,352.572845 222.975052,354.059662 
	C227.796341,356.075775 231.312241,359.909149 235.029739,363.468933 
	C241.758102,369.911896 248.666672,376.166656 255.500000,382.500000 
"/>
<path fill="none" opacity="1.000000" stroke="#000000" stroke-linecap="round" stroke-linejoin="round" stroke-width="5.000000"
	d="
M250.500000,47.500000 
	C243.424988,61.048653 236.926025,74.904877 228.991837,87.995049 
	C223.688080,96.745384 218.456375,105.536896 214.552078,115.021439 
	C213.757889,116.950752 212.277405,118.741348 212.515106,120.998405 
	C213.465515,130.022614 210.008606,138.237000 207.338715,146.447556 
	C204.817657,154.200333 203.859161,162.258362 201.500000,170.000000 
"/>
<path fill="none" opacity="1.000000" stroke="#000000" stroke-linecap="round" stroke-linejoin="round" stroke-width="5.000000"
	d="
M185.000000,207.500000 
	C182.024933,211.115265 182.231979,215.147110 182.925507,219.511841 
	C184.270050,227.973785 189.490707,234.405426 194.681915,240.340897 
	C203.084274,249.947922 211.935455,259.368195 223.500000,265.500000 
"/>
<path fill="none" opacity="1.000000" stroke="#000000" stroke-linecap="round" stroke-linejoin="round" stroke-width="11.000000"
	d="
M525.000000,187.500000 
	C521.612610,198.795486 518.539612,210.260315 511.426208,219.945801 
	C509.284210,222.862350 509.075287,225.557648 509.391724,229.009918 
	C510.899139,245.456696 509.888611,261.696075 504.543274,277.514618 
	C502.356323,283.986420 502.145813,291.211060 497.000000,296.500000 
"/>
<path fill="none" opacity="1.000000" stroke="#000000" stroke-linecap="round" stroke-linejoin="round" stroke-width="12.000000"
	d="
M434.000000,211.000000 
	C437.926880,215.880768 443.928162,218.884201 446.542480,224.981781 
	C447.114563,226.316071 448.934052,226.480545 449.991852,226.397003 
	C454.978241,226.003189 456.860535,229.147446 458.529968,232.986969 
	C461.936493,240.821609 463.022522,249.156250 463.391571,257.504791 
	C463.811615,267.007812 464.516602,276.720490 461.860168,285.959808 
	C459.310852,294.826569 459.579895,303.916168 460.854767,312.446991 
	C463.069397,327.266174 464.308716,342.148651 466.106079,356.987152 
	C466.718292,362.041504 467.313507,367.264282 469.570862,371.965973 
	C470.176727,373.227844 469.733826,374.347565 470.000000,375.500000 
"/>
<path fill="none" opacity="1.000000" stroke="#000000" stroke-linecap="round" stroke-linejoin="round" stroke-width="16.000000"
	d="
M575.500000,209.500000 
	C576.564575,219.245499 573.315979,228.298065 570.990112,237.497498 
	C570.900940,237.850418 570.741333,238.243256 570.489197,238.488937 
	C561.873962,246.884552 560.857483,258.999969 555.642944,269.074005 
	C552.838928,274.491150 551.498840,280.666260 549.501221,286.500397 
	C549.159668,287.497620 549.107178,289.116089 548.457703,289.404785 
	C541.856140,292.339294 538.521851,299.962433 531.000000,301.500000 
"/>
<path fill="none" opacity="1.000000" stroke="#000000" stroke-linecap="round" stroke-linejoin="round" stroke-width="4.000000"
	d="
M851.000000,157.000000 
	C851.856567,166.982559 853.958557,177.059387 851.850952,186.968307 
	C849.559631,197.740814 851.450623,208.998199 847.526123,219.509750 
	C846.679993,221.776077 846.166626,224.166656 845.500000,226.500000 
"/>
<path fill="none" opacity="1.000000" stroke="#000000" stroke-linecap="round" stroke-linejoin="round" stroke-width="3.000000"
	d="
M164.000000,155.000000 
	C167.417358,159.166672 164.984711,163.377396 163.966415,167.491684 
	C160.979630,179.559509 161.949020,191.394547 166.040665,202.985641 
	C169.170670,211.852493 172.084274,213.341263 182.000000,212.000000 
"/>
<path fill="none" opacity="1.000000" stroke="#000000" stroke-linecap="round" stroke-linejoin="round" stroke-width="4.000000"
	d="
M495.000000,229.000000 
	C491.036560,233.406631 490.675262,239.212708 489.025513,244.507950 
	C488.052460,247.631088 487.969727,251.206528 486.374634,253.926483 
	C482.401611,260.701202 484.219818,267.423676 484.696136,274.520386 
	C485.158722,281.412689 487.055634,287.020081 491.510040,291.990997 
	C492.609467,293.217896 493.646118,294.677338 495.036011,295.433807 
	C498.812775,297.489502 498.182098,300.874878 496.880920,303.439575 
	C492.107666,312.847870 492.947510,323.037384 491.971100,332.997162 
	C490.976196,343.145874 492.320679,353.398285 490.500000,363.500000 
"/>
<path fill="none" opacity="1.000000" stroke="#000000" stroke-linecap="round" stroke-linejoin="round" stroke-width="14.000000"
	d="
M55.500000,257.500000 
	C55.866253,260.979431 58.500404,263.049347 60.512703,265.489532 
	C62.094257,267.407379 63.253353,269.298004 62.545712,272.011932 
	C61.739532,275.103790 63.512550,277.324554 65.475121,279.522217 
	C73.712074,288.745972 83.643677,296.041016 92.965111,304.040649 
	C101.890564,311.700470 111.538712,317.516144 122.896049,321.311096 
	C131.682037,324.246826 139.952591,329.345428 147.442825,335.074768 
	C155.957367,341.587616 164.795731,340.598663 174.000000,337.500000 
"/>
<path fill="none" opacity="1.000000" stroke="#000000" stroke-linecap="round" stroke-linejoin="round" stroke-width="3.000000"
	d="
M402.500000,344.500000 
	C399.500000,340.333344 396.337708,336.272491 393.536041,331.976501 
	C388.699646,324.560394 382.217438,318.983459 375.049347,313.929993 
	C368.878754,309.579773 362.396118,309.425323 355.500000,311.000000 
"/>
<path fill="none" opacity="1.000000" stroke="#000000" stroke-linecap="round" stroke-linejoin="round" stroke-width="3.000000"
	d="
M607.500000,539.000000 
	C603.116638,546.033325 600.759888,553.966980 597.490295,561.495789 
	C593.174255,571.434204 588.177551,581.087891 585.000000,591.500000 
"/>
<path fill="none" opacity="1.000000" stroke="#000000" stroke-linecap="round" stroke-linejoin="round" stroke-width="17.000000"
	d="
M297.500000,87.500000 
	C294.921661,98.250999 291.357056,108.783150 290.938873,119.997719 
	C290.755188,124.924400 292.039917,129.454895 293.524628,133.991943 
	C294.394623,136.650452 294.792542,139.250549 294.011719,142.003326 
	C291.087036,152.314484 290.837830,162.889313 291.000000,173.500000 
"/>
<path fill="none" opacity="1.000000" stroke="#000000" stroke-linecap="round" stroke-linejoin="round" stroke-width="5.000000"
	d="
M284.500000,205.500000 
	C283.017822,215.865280 286.444061,224.392899 293.964386,231.537476 
	C296.522400,233.967682 298.787964,236.737839 300.976715,239.518326 
	C306.965851,247.126556 313.930450,253.651825 322.000000,259.000000 
"/>
<path fill="none" opacity="1.000000" stroke="#000000" stroke-linecap="round" stroke-linejoin="round" stroke-width="14.000000"
	d="
M376.000000,178.500000 
	C375.104980,188.145996 378.977753,196.489563 383.582428,204.452332 
	C387.041473,210.433975 389.513733,216.833313 392.605347,222.946732 
	C395.263885,228.203690 398.575226,233.189682 402.071503,237.947449 
	C405.675629,242.851852 405.878998,248.108505 404.352142,253.457794 
	C403.755219,255.549118 403.671661,256.738800 404.932983,258.546753 
	C408.518127,263.685699 411.629822,269.115631 412.491302,275.501160 
	C412.557556,275.992249 412.295319,276.642609 412.529846,276.979218 
	C418.789734,285.964081 422.975952,296.116089 428.633453,305.418854 
	C430.077362,307.793091 433.346710,308.982819 435.454132,311.046844 
	C438.050018,313.589294 440.027954,316.609558 440.000000,320.500000 
"/>
<path fill="none" opacity="1.000000" stroke="#000000" stroke-linecap="round" stroke-linejoin="round" stroke-width="3.000000"
	d="
M751.000000,118.000000 
	C746.525208,124.211479 746.231201,131.004929 748.530823,137.989853 
	C751.905273,148.239212 753.013428,158.836151 753.397400,169.503693 
	C753.533630,173.290314 755.078186,175.173080 758.504211,175.447800 
	C763.804626,175.872818 768.882019,177.248337 774.000000,178.500000 
"/>
<path fill="none" opacity="1.000000" stroke="#000000" stroke-linecap="round" stroke-linejoin="round" stroke-width="8.000000"
	d="
M722.500000,99.500000 
	C726.282410,112.728157 725.908691,125.743179 720.500000,138.500000 
"/>
<path fill="none" opacity="1.000000" stroke="#000000" stroke-linecap="round" stroke-linejoin="round" stroke-width="17.000000"
	d="
M733.000000,189.000000 
	C733.833618,191.794098 733.759827,194.705566 733.434692,197.492386 
	C732.248596,207.657135 732.636780,217.989288 730.055237,228.014221 
	C729.295044,230.966385 728.174866,233.961166 726.790894,236.380371 
	C723.328674,242.432388 721.071045,249.025970 717.571960,255.041870 
	C714.927124,259.589111 713.790710,264.659546 715.000000,270.000000 
"/>
<path fill="none" opacity="1.000000" stroke="#000000" stroke-linecap="round" stroke-linejoin="round" stroke-width="11.000000"
	d="
M823.500000,122.000000 
	C834.043884,124.723503 841.751343,130.824265 847.141113,140.420746 
	C849.648254,144.884750 853.645386,148.518082 857.016113,152.486328 
	C857.784180,153.390564 858.551392,154.224304 858.500000,155.500000 
"/>
<path fill="none" opacity="1.000000" stroke="#000000" stroke-linecap="round" stroke-linejoin="round" stroke-width="3.000000"
	d="
M615.000000,221.000000 
	C622.607178,226.883377 623.404297,230.534073 619.004089,239.002136 
	C613.986023,248.659378 608.951172,258.308655 604.040588,268.020508 
	C603.042236,269.995026 601.782837,272.052460 602.500000,274.500000 
"/>
<path fill="none" opacity="1.000000" stroke="#000000" stroke-linecap="round" stroke-linejoin="round" stroke-width="6.000000"
	d="
M805.500000,230.000000 
	C800.000000,228.862747 794.446167,228.734482 789.013550,230.055649 
	C782.120544,231.731964 778.996765,237.669678 775.549683,243.031952 
	C773.920227,245.566833 772.158875,247.922455 770.000000,250.000000 
"/>
<path fill="none" opacity="1.000000" stroke="#000000" stroke-linecap="round" stroke-linejoin="round" stroke-width="3.000000"
	d="
M633.000000,170.000000 
	C636.229004,174.285507 633.840210,179.038986 633.766296,183.496124 
	C633.727478,185.832352 632.865234,188.575577 631.961792,190.985687 
	C628.963623,198.984085 628.475037,201.015106 618.500000,201.000153 
	C617.666687,200.998901 616.833313,201.000000 616.000000,201.000000 
"/>
<path fill="none" opacity="1.000000" stroke="#000000" stroke-linecap="round" stroke-linejoin="round" stroke-width="3.000000"
	d="
M277.500000,402.500000 
	C290.004303,414.838013 302.093903,427.528503 311.500000,442.500000 
"/>
<path fill="none" opacity="1.000000" stroke="#000000" stroke-linecap="round" stroke-linejoin="round" stroke-width="4.000000"
	d="
M739.000000,311.500000 
	C732.143982,309.829224 725.957825,311.842194 720.003296,315.006226 
	C712.098328,319.206635 706.177795,325.758209 700.000000,332.000000 
"/>
<path fill="none" opacity="1.000000" stroke="#000000" stroke-linecap="round" stroke-linejoin="round" stroke-width="22.000000"
	d="
M497.500000,114.000000 
	C504.787567,118.237022 507.501770,125.142914 508.479095,133.002594 
	C508.923889,136.579895 509.547089,139.703430 512.331238,142.658997 
	C515.101624,145.599976 516.979126,149.659637 518.386475,153.541168 
	C520.439575,159.203842 521.271667,164.748611 515.575195,169.588531 
	C507.348663,176.578049 503.372223,186.186722 501.028168,196.506393 
	C500.660004,198.127304 500.666656,199.833328 500.499969,201.500000 
"/>
<path fill="none" opacity="1.000000" stroke="#000000" stroke-linecap="round" stroke-linejoin="round" stroke-width="6.000000"
	d="
M639.500000,83.000000 
	C651.595703,91.963806 659.541870,103.616043 662.500000,118.500000 
"/>
<path fill="none" opacity="1.000000" stroke="#000000" stroke-linecap="round" stroke-linejoin="round" stroke-width="2.000000"
	d="
M688.500000,172.000000 
	C690.550598,178.508438 690.545776,184.325577 685.666626,190.139801 
	C681.868835,194.665329 677.619934,195.602737 672.511169,194.916763 
	C670.516724,194.648972 668.562988,193.955353 666.500000,194.000000 
"/>
<path fill="none" opacity="1.000000" stroke="#000000" stroke-linecap="round" stroke-linejoin="round" stroke-width="3.000000"
	d="
M272.000000,323.500000 
	C284.150543,320.292053 294.394592,322.593475 304.809448,330.597321 
	C312.122345,336.217346 318.953705,342.146606 325.457947,348.542755 
	C330.666107,353.664429 335.500000,359.166656 340.500000,364.500000 
"/>
<path fill="none" opacity="1.000000" stroke="#000000" stroke-linecap="round" stroke-linejoin="round" stroke-width="3.000000"
	d="
M788.000000,181.500000 
	C788.000000,181.833328 787.884521,182.223633 788.016724,182.491760 
	C792.232666,191.041245 786.657898,197.327057 782.955261,203.975098 
	C781.388794,206.787766 778.254028,206.725677 775.496826,206.962936 
	C773.346069,207.147995 771.166687,207.000000 769.000000,207.000000 
"/>
<path fill="none" opacity="1.000000" stroke="#000000" stroke-linecap="round" stroke-linejoin="round" stroke-width="6.000000"
	d="
M698.000000,221.000000 
	C695.328003,221.081268 692.670654,221.134384 689.990295,221.402786 
	C685.441040,221.858276 682.041260,223.845932 679.505371,227.503708 
	C675.817871,232.822617 672.166687,238.166672 668.500000,243.500000 
"/>
<path fill="none" opacity="1.000000" stroke="#000000" stroke-linecap="round" stroke-linejoin="round" stroke-width="4.000000"
	d="
M662.500000,338.500000 
	C655.384216,338.981415 650.883911,343.416718 646.410767,348.420227 
	C641.654175,353.740845 638.882935,360.199280 635.000000,366.000000 
"/>
<path fill="none" opacity="1.000000" stroke="#000000" stroke-linecap="round" stroke-linejoin="round" stroke-width="6.000000"
	d="
M819.500000,232.500000 
	C821.342957,244.784256 818.728333,255.693893 809.463806,264.461731 
	C808.477966,265.394684 807.120972,265.906372 807.000000,267.500000 
"/>
<path fill="none" opacity="1.000000" stroke="#000000" stroke-linecap="round" stroke-linejoin="round" stroke-width="18.000000"
	d="
M509.000000,139.500000 
	C494.954803,137.292465 486.354736,146.639725 476.916321,154.398193 
	C475.716675,155.384338 475.949921,156.210419 476.055298,156.992554 
	C477.645599,168.798965 474.674896,180.688843 476.903687,192.518143 
	C477.900940,197.811218 479.388428,202.934921 481.096680,207.967178 
	C483.037994,213.685867 482.941681,218.860870 480.649963,224.560303 
	C478.118958,230.854721 476.637421,237.594147 476.500000,244.500000 
"/>
<path fill="none" opacity="1.000000" stroke="#000000" stroke-linecap="round" stroke-linejoin="round" stroke-width="4.000000"
	d="
M562.000000,142.000000 
	C564.169983,144.665924 564.238281,147.753326 564.029846,151.001923 
	C563.408447,160.688690 563.085083,170.396088 561.525696,180.004166 
	C561.255127,181.671234 561.454895,183.348373 563.000000,184.500000 
"/>
<path fill="none" opacity="1.000000" stroke="#000000" stroke-linecap="round" stroke-linejoin="round" stroke-width="4.000000"
	d="
M644.000000,149.500000 
	C648.273315,155.380707 646.279236,162.138184 646.375305,168.501877 
	C646.473267,174.986557 643.769104,181.334961 645.391479,188.026321 
	C645.964478,190.389618 646.894531,192.438004 648.000000,194.500000 
"/>
<path fill="none" opacity="1.000000" stroke="#000000" stroke-linecap="round" stroke-linejoin="round" stroke-width="5.000000"
	d="
M269.000000,119.000000 
	C261.014435,129.379272 255.274521,141.099213 249.000000,152.500000 
"/>
<path fill="none" opacity="1.000000" stroke="#000000" stroke-linecap="round" stroke-linejoin="round" stroke-width="18.000000"
	d="
M424.500000,115.500000 
	C429.162262,121.045944 433.247131,126.841492 433.571381,134.496979 
	C433.611115,135.435165 434.268402,136.534683 435.492218,137.019608 
	C444.565430,140.614761 446.664490,148.349121 447.574219,156.992188 
	C448.016754,161.196320 447.161865,165.706573 449.931152,169.549606 
	C450.269440,170.019073 449.808777,171.228241 449.478485,171.990677 
	C445.062378,182.184708 448.875061,191.799438 451.500000,201.500000 
"/>
<path fill="none" opacity="1.000000" stroke="#000000" stroke-linecap="round" stroke-linejoin="round" stroke-width="15.000000"
	d="
M628.500000,147.500000 
	C620.102600,142.099808 611.624878,141.638535 602.988464,146.981308 
	C600.899475,148.273605 598.666687,149.333359 596.500000,150.500015 
"/>
<path fill="none" opacity="1.000000" stroke="#000000" stroke-linecap="round" stroke-linejoin="round" stroke-width="4.000000"
	d="
M253.000000,159.000000 
	C256.106720,166.004684 255.482330,173.775391 257.516846,180.995255 
	C258.417084,184.190033 259.500000,187.333328 260.500000,190.500000 
"/>
<path fill="none" opacity="1.000000" stroke="#000000" stroke-linecap="round" stroke-linejoin="round" stroke-width="10.000000"
	d="
M814.000000,137.000000 
	C806.119385,136.061340 798.402893,134.515900 790.974670,131.563721 
	C788.299011,130.500320 785.333313,130.166672 782.500000,129.500000 
"/>
<path fill="none" opacity="1.000000" stroke="#000000" stroke-linecap="round" stroke-linejoin="round" stroke-width="9.000000"
	d="
M187.500000,129.500000 
	C190.014633,134.928848 189.993668,140.567001 187.905838,145.963577 
	C186.022415,150.831848 187.393982,155.670853 187.000000,160.500000 
"/>
<path fill="none" opacity="1.000000" stroke="#000000" stroke-linecap="round" stroke-linejoin="round" stroke-width="19.000000"
	d="
M357.000000,110.500000 
	C359.494049,118.654045 360.041138,127.045288 359.973633,135.499786 
	C359.961914,136.967148 360.310699,138.414139 361.524628,138.943512 
	C369.968597,142.625809 371.061279,150.368073 371.916748,158.009323 
	C372.610260,164.204391 374.766693,170.184677 374.500000,176.500000 
"/>
<path fill="none" opacity="1.000000" stroke="#000000" stroke-linecap="round" stroke-linejoin="round" stroke-width="8.000000"
	d="
M344.000000,131.500000 
	C337.500000,140.833328 331.000000,150.166672 324.500000,159.500000 
"/>
<path fill="none" opacity="1.000000" stroke="#000000" stroke-linecap="round" stroke-linejoin="round" stroke-width="6.000000"
	d="
M447.000000,226.500000 
	C441.605927,233.847488 442.673615,241.631393 445.521179,249.492325 
	C446.384369,251.875214 447.500000,254.166672 448.500000,256.500000 
"/>
<path fill="none" opacity="1.000000" stroke="#000000" stroke-linecap="round" stroke-linejoin="round" stroke-width="5.000000"
	d="
M610.500000,213.500015 
	C609.666687,213.666672 608.840027,213.922928 607.998962,213.986023 
	C600.476135,214.550400 595.400208,218.042267 592.878967,225.458862 
	C591.893005,228.359024 591.222778,231.585220 589.000000,234.000000 
"/>
<path fill="none" opacity="1.000000" stroke="#000000" stroke-linecap="round" stroke-linejoin="round" stroke-width="5.000000"
	d="
M136.000000,222.500000 
	C128.535400,231.811996 129.556870,242.282288 138.000000,251.000000 
"/>
<path fill="none" opacity="1.000000" stroke="#000000" stroke-linecap="round" stroke-linejoin="round" stroke-width="4.000000"
	d="
M243.000000,220.000000 
	C237.784485,228.178162 239.655624,235.767273 245.025620,242.980927 
	C246.604385,245.101730 248.405838,247.052368 249.500000,249.500000 
"/>
<path fill="none" opacity="1.000000" stroke="#000000" stroke-linecap="round" stroke-linejoin="round" stroke-width="7.000000"
	d="
M778.500000,175.000000 
	C785.063232,178.484756 791.977722,181.097366 798.966003,183.595062 
	C801.510437,184.504471 803.666687,186.500015 806.000000,188.000015 
"/>
<path fill="none" opacity="1.000000" stroke="#000000" stroke-linecap="round" stroke-linejoin="round" stroke-width="4.000000"
	d="
M732.000000,204.500000 
	C727.542847,205.193024 723.449463,206.261520 719.343445,208.740723 
	C715.094238,211.306381 709.781067,209.091232 705.000000,208.000000 
"/>
<path fill="none" opacity="1.000000" stroke="#000000" stroke-linecap="round" stroke-linejoin="round" stroke-width="10.000000"
	d="
M655.000000,128.000000 
	C659.000000,136.500000 663.000000,145.000000 667.000000,153.500000 
"/>
<path fill="none" opacity="1.000000" stroke="#000000" stroke-linecap="round" stroke-linejoin="round" stroke-width="3.000000"
	d="
M337.500000,215.000000 
	C332.653351,222.086014 333.861816,228.869781 338.493469,235.504562 
	C339.869049,237.475067 341.166687,239.500000 342.500000,241.500000 
"/>
<path fill="none" opacity="1.000000" stroke="#000000" stroke-linecap="round" stroke-linejoin="round" stroke-width="18.000000"
	d="
M90.500000,221.000000 
	C85.370201,222.662323 81.209000,225.649948 77.982338,229.986862 
	C76.928093,231.403824 75.709465,232.707382 74.489456,233.989960 
	C72.865486,235.697250 69.735435,237.383621 69.791870,238.989746 
	C69.917252,242.557693 70.846001,246.333206 73.002571,249.498245 
	C76.965431,255.314285 80.540070,261.416626 85.500000,266.500000 
"/>
<path fill="none" opacity="1.000000" stroke="#000000" stroke-linecap="round" stroke-linejoin="round" stroke-width="3.000000"
	d="
M264.000000,195.000000 
	C265.166656,197.000000 266.387390,198.970703 267.490112,201.005356 
	C271.133423,207.727768 273.000336,208.731979 279.996948,207.482910 
	C281.185242,207.270752 282.333344,206.833344 283.500000,206.500015 
"/>
<path fill="none" opacity="1.000000" stroke="#000000" stroke-linecap="round" stroke-linejoin="round" stroke-width="6.000000"
	d="
M569.500000,105.500000 
	C564.175415,110.136833 563.539673,116.666771 562.536499,123.005775 
	C562.146423,125.470428 562.166626,128.000000 562.000000,130.500000 
"/>
<path fill="none" opacity="1.000000" stroke="#000000" stroke-linecap="round" stroke-linejoin="round" stroke-width="11.000000"
	d="
M520.500000,164.500000 
	C520.666687,164.666672 520.814514,164.859055 521.002686,164.996307 
	C528.446228,170.426865 536.544250,170.646149 545.000000,168.000000 
"/>
<path fill="none" opacity="1.000000" stroke="#000000" stroke-linecap="round" stroke-linejoin="round" stroke-width="3.000000"
	d="
M705.000000,231.500000 
	C710.486938,237.866745 710.745972,240.269455 705.966370,246.976028 
	C701.963440,252.592743 697.666687,258.000000 693.500000,263.500000 
"/>
<path fill="none" opacity="1.000000" stroke="#000000" stroke-linecap="round" stroke-linejoin="round" stroke-width="2.000000"
	d="
M500.000000,305.500000 
	C504.965912,310.542816 505.949677,316.790588 505.519714,323.501251 
	C505.392090,325.493073 505.500000,327.500000 505.500000,329.500000 
"/>
<path fill="none" opacity="1.000000" stroke="#000000" stroke-linecap="round" stroke-linejoin="round" stroke-width="7.000000"
	d="
M460.500000,202.500000 
	C463.309906,211.308105 462.894470,219.511459 456.000000,226.500000 
"/>
<path fill="none" opacity="1.000000" stroke="#000000" stroke-linecap="round" stroke-linejoin="round" stroke-width="3.000000"
	d="
M576.500000,290.500000 
	C566.215332,292.774139 561.771606,300.581848 558.500000,309.500000 
"/>
<path fill="none" opacity="1.000000" stroke="#000000" stroke-linecap="round" stroke-linejoin="round" stroke-width="3.000000"
	d="
M290.500000,230.500000 
	C289.287903,233.739227 289.383087,236.705673 290.874176,240.056000 
	C292.941498,244.700974 293.494385,249.955963 296.000000,254.500000 
"/>
<path fill="none" opacity="1.000000" stroke="#000000" stroke-linecap="round" stroke-linejoin="round" stroke-width="3.000000"
	d="
M38.500000,268.500000 
	C45.869122,272.454529 53.445892,275.758423 62.000000,276.000000 
"/>
<path fill="none" opacity="1.000000" stroke="#000000" stroke-linecap="round" stroke-linejoin="round" stroke-width="3.000000"
	d="
M413.000000,210.500000 
	C407.896393,217.166672 410.476685,223.857101 413.064972,230.474579 
	C413.457306,231.477676 414.900635,232.049683 414.500000,233.500000 
"/>
<path fill="none" opacity="1.000000" stroke="#000000" stroke-linecap="round" stroke-linejoin="round" stroke-width="2.000000"
	d="
M519.000000,314.000000 
	C513.488159,320.533630 512.947021,328.503204 512.500000,336.500000 
"/>
<path fill="none" opacity="1.000000" stroke="#000000" stroke-linecap="round" stroke-linejoin="round" stroke-width="4.000000"
	d="
M55.500000,199.000000 
	C47.898674,201.007645 41.124630,205.674408 33.000000,206.000000 
"/>
<path fill="none" opacity="1.000000" stroke="#000000" stroke-linecap="round" stroke-linejoin="round" stroke-width="4.000000"
	d="
M38.000000,229.000000 
	C33.991177,237.305069 37.950397,244.370682 41.500000,251.500000 
"/>
<path fill="none" opacity="1.000000" stroke="#000000" stroke-linecap="round" stroke-linejoin="round" stroke-width="3.000000"
	d="
M310.500000,295.000000 
	C306.597961,303.461700 310.692291,310.063812 315.500000,316.500000 
"/>
<path fill="none" opacity="1.000000" stroke="#000000" stroke-linecap="round" stroke-linejoin="round" stroke-width="5.000000"
	d="
M182.500000,248.000000 
	C178.068237,246.295303 174.434250,242.592575 168.983292,243.385040 
	C166.216095,243.787354 164.078674,245.402695 161.500000,246.000000 
"/>
<path fill="none" opacity="1.000000" stroke="#000000" stroke-linecap="round" stroke-linejoin="round" stroke-width="4.000000"
	d="
M287.500000,245.500000 
	C282.920013,238.872955 278.577606,237.522934 271.496979,240.492813 
	C270.184784,241.043213 268.833344,241.500000 267.500000,242.000000 
"/>
<path fill="none" opacity="1.000000" stroke="#000000" stroke-linecap="round" stroke-linejoin="round" stroke-width="3.000000"
	d="
M404.500000,158.000000 
	C397.500000,155.166672 390.500000,152.333328 383.500000,149.500000 
"/>
<path fill="none" opacity="1.000000" stroke="#000000" stroke-linecap="round" stroke-linejoin="round" stroke-width="8.000000"
	d="
M143.500000,312.500000 
	C149.035721,318.546814 156.026047,320.617706 164.000000,320.000000 
"/>
<path fill="none" opacity="1.000000" stroke="#000000" stroke-linecap="round" stroke-linejoin="round" stroke-width="6.000000"
	d="
M104.500000,184.000000 
	C110.623032,188.990402 118.228653,191.217804 125.000000,195.000000 
"/>
<path fill="none" opacity="1.000000" stroke="#000000" stroke-linecap="round" stroke-linejoin="round" stroke-width="2.000000"
	d="
M425.000000,144.000000 
	C425.500000,144.666656 426.128326,145.272415 426.478546,146.010178 
	C428.351837,149.956375 430.650116,153.495712 429.247803,158.568497 
	C428.289124,162.036621 428.647095,166.174088 429.438385,170.012695 
	C429.800873,171.771301 429.500000,173.666672 429.500000,175.500000 
"/>
<path fill="none" opacity="1.000000" stroke="#000000" stroke-linecap="round" stroke-linejoin="round" stroke-width="2.000000"
	d="
M549.000000,290.500000 
	C553.904663,297.048218 551.711975,303.773865 549.500000,310.500000 
"/>
<path fill="none" opacity="1.000000" stroke="#000000" stroke-linecap="round" stroke-linejoin="round" stroke-width="4.000000"
	d="
M201.000000,178.500000 
	C207.124939,182.080856 214.025253,183.771790 220.500000,186.500000 
"/>
<path fill="none" opacity="1.000000" stroke="#000000" stroke-linecap="round" stroke-linejoin="round" stroke-width="3.000000"
	d="
M213.000000,305.500000 
	C211.385803,313.126801 213.400101,319.512238 219.500000,324.500000 
"/>
<path fill="none" opacity="1.000000" stroke="#000000" stroke-linecap="round" stroke-linejoin="round" stroke-width="10.000000"
	d="
M906.000000,187.500000 
	C899.402649,186.212906 893.291565,183.029648 886.500000,182.500000 
"/>
<path fill="none" opacity="1.000000" stroke="#000000" stroke-linecap="round" stroke-linejoin="round" stroke-width="3.000000"
	d="
M355.500000,565.500000 
	C358.968933,571.761963 361.232208,578.658508 365.500000,584.500000 
"/>
<path fill="none" opacity="1.000000" stroke="#000000" stroke-linecap="round" stroke-linejoin="round" stroke-width="3.000000"
	d="
M110.000000,317.500000 
	C107.649986,324.778259 111.314423,330.218750 115.500000,335.500000 
"/>
<path fill="none" opacity="1.000000" stroke="#000000" stroke-linecap="round" stroke-linejoin="round" stroke-width="2.000000"
	d="
M556.000000,211.000000 
	C558.917419,216.934433 554.977661,222.043076 553.905457,227.481369 
	C553.779297,228.121384 553.600708,228.816833 553.500000,229.500000 
"/>
<path fill="none" opacity="1.000000" stroke="#000000" stroke-linecap="round" stroke-linejoin="round" stroke-width="3.000000"
	d="
M146.500000,92.000000 
	C137.813278,88.846138 136.963287,88.329483 130.000000,97.000000 
"/>
<path fill="none" opacity="1.000000" stroke="#000000" stroke-linecap="round" stroke-linejoin="round" stroke-width="6.000000"
	d="
M682.000000,168.000000 
	C687.845825,171.079849 693.988708,173.233871 700.477051,174.608459 
	C702.787170,175.097885 704.833313,176.833328 707.000000,177.999985 
"/>
<path fill="none" opacity="1.000000" stroke="#000000" stroke-linecap="round" stroke-linejoin="round" stroke-width="3.000000"
	d="
M475.500000,155.000000 
	C469.734375,152.184296 463.903656,149.548828 457.500000,148.500000 
"/>
<path fill="none" opacity="1.000000" stroke="#000000" stroke-linecap="round" stroke-linejoin="round" stroke-width="5.000000"
	d="
M450.500000,170.000000 
	C455.141449,170.865540 458.473053,175.270218 463.497833,174.964355 
	C467.690979,174.709137 471.576080,175.876907 475.500000,177.000000 
"/>
<path fill="none" opacity="1.000000" stroke="#000000" stroke-linecap="round" stroke-linejoin="round" stroke-width="3.000000"
	d="
M388.000000,285.500000 
	C383.968994,291.877594 386.764984,297.686249 389.500000,303.500000 
"/>
<path fill="none" opacity="1.000000" stroke="#000000" stroke-linecap="round" stroke-linejoin="round" stroke-width="5.000000"
	d="
M299.500000,267.500000 
	C303.977600,272.630737 305.967468,278.127319 302.000000,284.500000 
"/>
<path fill="none" opacity="1.000000" stroke="#000000" stroke-linecap="round" stroke-linejoin="round" stroke-width="3.000000"
	d="
M642.000000,185.500000 
	C638.071411,191.343338 635.144592,197.634857 633.500000,204.500000 
"/>
<path fill="none" opacity="1.000000" stroke="#000000" stroke-linecap="round" stroke-linejoin="round" stroke-width="3.000000"
	d="
M380.500000,489.500000 
	C383.073761,495.210388 386.531097,500.504974 388.500000,506.500000 
"/>
<path fill="none" opacity="1.000000" stroke="#000000" stroke-linecap="round" stroke-linejoin="round" stroke-width="3.000000"
	d="
M199.000000,275.500000 
	C202.772675,280.526520 203.897461,285.801270 200.500000,291.500000 
"/>
<path fill="none" opacity="1.000000" stroke="#000000" stroke-linecap="round" stroke-linejoin="round" stroke-width="6.000000"
	d="
M405.000000,182.000000 
	C390.484924,180.374924 376.266327,176.293320 361.500000,176.750000 
"/>
<path fill="none" opacity="1.000000" stroke="#000000" stroke-linecap="round" stroke-linejoin="round" stroke-width="5.000000"
	d="
M429.000000,307.000000 
	C425.696045,311.922668 429.413086,316.079498 430.571899,320.481079 
	C430.832550,321.471039 431.655029,322.337219 431.500000,323.500000 
"/>
<path fill="none" opacity="1.000000" stroke="#000000" stroke-linecap="round" stroke-linejoin="round" stroke-width="3.000000"
	d="
M638.000000,223.000000 
	C634.677246,223.333603 631.973938,224.323975 629.867798,227.409790 
	C628.267822,229.753967 626.306824,232.678055 622.500000,232.000000 
"/>
<path fill="none" opacity="1.000000" stroke="#000000" stroke-linecap="round" stroke-linejoin="round" stroke-width="5.000000"
	d="
M375.500000,241.500000 
	C372.182251,232.942139 367.393463,228.552063 356.500000,233.500000 
"/>
<path fill="none" opacity="1.000000" stroke="#000000" stroke-linecap="round" stroke-linejoin="round" stroke-width="8.000000"
	d="
M30.500000,208.500000 
	C25.166666,207.916672 19.833332,207.333344 14.500000,206.750000 
"/>
<path fill="none" opacity="1.000000" stroke="#000000" stroke-linecap="round" stroke-linejoin="round" stroke-width="8.000000"
	d="
M701.000000,283.000000 
	C695.911072,281.645294 691.223022,278.030884 685.500000,280.250000 
"/>
<path fill="none" opacity="1.000000" stroke="#000000" stroke-linecap="round" stroke-linejoin="round" stroke-width="3.000000"
	d="
M355.000000,142.500000 
	C351.160309,146.998932 351.858337,152.254166 352.500000,157.500000 
"/>
<path fill="none" opacity="1.000000" stroke="#000000" stroke-linecap="round" stroke-linejoin="round" stroke-width="5.000000"
	d="
M473.000000,215.500000 
	C469.698364,218.111938 471.034698,221.800964 471.157898,224.993912 
	C471.227203,226.790253 471.447479,228.656296 471.500000,230.500000 
"/>
<path fill="none" opacity="1.000000" stroke="#000000" stroke-linecap="round" stroke-linejoin="round" stroke-width="4.000000"
	d="
M292.000000,180.999985 
	C295.500000,181.499985 299.354431,181.244690 302.415070,182.680969 
	C306.761963,184.720840 311.081390,184.387573 315.500000,184.500000 
"/>
<path fill="none" opacity="1.000000" stroke="#000000" stroke-linecap="round" stroke-linejoin="round" stroke-width="6.000000"
	d="
M742.000000,238.500000 
	C739.284790,233.979813 735.567688,230.672424 730.500000,229.000000 
"/>
<path fill="none" opacity="1.000000" stroke="#000000" stroke-linecap="round" stroke-linejoin="round" stroke-width="5.000000"
	d="
M98.500000,187.500000 
	C93.833336,185.957474 89.166664,187.228455 84.500000,187.500000 
"/>
<path fill="none" opacity="1.000000" stroke="#000000" stroke-linecap="round" stroke-linejoin="round" stroke-width="3.000000"
	d="
M292.500000,333.000000 
	C287.629730,332.241333 283.234314,334.806946 278.500000,335.000000 
"/>
<path fill="none" opacity="1.000000" stroke="#000000" stroke-linecap="round" stroke-linejoin="round" stroke-width="2.000000"
	d="
M430.500000,181.500000 
	C429.776520,186.047195 431.903351,190.155899 432.500000,194.500000 
"/>
<path fill="none" opacity="1.000000" stroke="#000000" stroke-linecap="round" stroke-linejoin="round" stroke-width="4.000000"
	d="
M372.500000,320.500000 
	C368.051208,321.000580 363.825287,319.569733 359.500000,319.000000 
"/>
<path fill="none" opacity="1.000000" stroke="#000000" stroke-linecap="round" stroke-linejoin="round" stroke-width="3.000000"
	d="
M381.500000,258.000000 
	C384.738037,262.043823 384.765778,266.216034 382.000000,270.500000 
"/>
<path fill="none" opacity="1.000000" stroke="#000000" stroke-linecap="round" stroke-linejoin="round" stroke-width="3.000000"
	d="
M549.000000,222.500000 
	C552.346252,226.646378 549.145569,230.519958 548.500000,234.500000 
"/>
<path fill="none" opacity="1.000000" stroke="#000000" stroke-linecap="round" stroke-linejoin="round" stroke-width="3.000000"
	d="
M831.500000,197.500000 
	C831.619446,201.875122 830.542908,205.901413 828.000000,209.500000 
"/>
<path fill="none" opacity="1.000000" stroke="#000000" stroke-linecap="round" stroke-linejoin="round" stroke-width="3.000000"
	d="
M415.500000,435.500000 
	C416.833313,439.500000 418.166656,443.500000 419.500000,447.500000 
"/>
<path fill="none" opacity="1.000000" stroke="#000000" stroke-linecap="round" stroke-linejoin="round" stroke-width="4.000000"
	d="
M468.500000,300.000000 
	C473.999725,305.752136 474.117615,313.341949 475.500000,320.500000 
"/>
<path fill="none" opacity="1.000000" stroke="#000000" stroke-linecap="round" stroke-linejoin="round" stroke-width="6.000000"
	d="
M432.000000,205.500000 
	C432.703918,206.983002 433.407837,208.466019 434.183044,210.099243 
	C430.508118,212.315018 426.553894,213.300735 422.500000,214.000000 
"/>
<path fill="none" opacity="1.000000" stroke="#000000" stroke-linecap="round" stroke-linejoin="round" stroke-width="5.000000"
	d="
M233.000000,198.500000 
	C229.500000,198.500000 226.000000,198.500000 222.500000,198.500000 
"/>
<path fill="none" opacity="1.000000" stroke="#000000" stroke-linecap="round" stroke-linejoin="round" stroke-width="3.000000"
	d="
M443.000000,282.000000 
	C440.703247,285.129486 440.197632,288.770752 440.000000,292.500000 
"/>
<path fill="none" opacity="1.000000" stroke="#000000" stroke-linecap="round" stroke-linejoin="round" stroke-width="3.000000"
	d="
M392.000000,224.500000 
	C388.864868,226.126129 384.843384,224.206879 382.000000,227.000000 
"/>
<path fill="none" opacity="1.000000" stroke="#000000" stroke-linecap="round" stroke-linejoin="round" stroke-width="3.000000"
	d="
M483.000000,287.500000 
	C480.496735,289.980194 480.208984,293.322021 479.500000,296.500000 
"/>
<path fill="none" opacity="1.000000" stroke="#000000" stroke-linecap="round" stroke-linejoin="round" stroke-width="2.000000"
	d="
M496.500000,196.500000 
	C497.451385,199.589462 497.145050,202.456970 495.000000,205.000000 
"/>
<path fill="none" opacity="1.000000" stroke="#000000" stroke-linecap="round" stroke-linejoin="round" stroke-width="4.000000"
	d="
M83.500000,244.500000 
	C80.535706,244.742096 77.815796,243.599396 75.000000,243.000000 
"/>
<path fill="none" opacity="1.000000" stroke="#000000" stroke-linecap="round" stroke-linejoin="round" stroke-width="2.000000"
	d="
M832.000000,182.500000 
	C833.063354,185.110626 832.224976,187.840103 832.500000,190.500000 
"/>
<path fill="none" opacity="1.000000" stroke="#000000" stroke-linecap="round" stroke-linejoin="round" stroke-width="2.000000"
	d="
M506.000000,353.500000 
	C504.936646,356.110626 505.775055,358.840118 505.500000,361.500000 
"/>
<path fill="none" opacity="1.000000" stroke="#000000" stroke-linecap="round" stroke-linejoin="round" stroke-width="2.000000"
	d="
M505.500000,346.500000 
	C505.588257,349.099426 504.923950,351.967651 508.000000,353.500000 
"/>
<path fill="none" opacity="1.000000" stroke="#000000" stroke-linecap="round" stroke-linejoin="round" stroke-width="2.000000"
	d="
M509.500000,349.500000 
	C507.830505,353.388641 508.563049,357.477478 508.500000,361.500000 
"/>
<path fill="none" opacity="1.000000" stroke="#000000" stroke-linecap="round" stroke-linejoin="round" stroke-width="2.000000"
	d="
M133.500000,100.500000 
	C136.110275,99.012436 138.515610,100.599197 141.000000,101.000000 
"/>
<path fill="none" opacity="1.000000" stroke="#000000" stroke-linecap="round" stroke-linejoin="round" stroke-width="2.000000"
	d="
M575.000000,150.000000 
	C573.180298,151.862122 573.518494,154.222214 573.500000,156.500000 
"/>
<path fill="none" opacity="1.000000" stroke="#000000" stroke-linecap="round" stroke-linejoin="round" stroke-width="3.000000"
	d="
M752.500000,314.000000 
	C754.365784,315.036865 756.365112,315.539612 758.500000,315.500000 
"/>
<path fill="none" opacity="1.000000" stroke="#000000" stroke-linecap="round" stroke-linejoin="round" stroke-width="3.000000"
	d="
M716.000000,242.000000 
	C714.217712,240.564529 712.311829,239.376358 710.000000,239.000000 
"/>
<path fill="none" opacity="1.000000" stroke="#000000" stroke-linecap="round" stroke-linejoin="round" stroke-width="1.000000"
	d="
M235.500000,154.750000 
	C236.666672,155.500000 237.833328,156.250000 239.000000,157.000000 
"/>
</svg>